<mxfile host="app.diagrams.net" modified="2021-02-08T07:32:35.176Z" agent="5.0 (Macintosh; Intel Mac OS X 11_0_1) AppleWebKit/537.36 (KHTML, like Gecko) Chrome/88.0.4324.96 Safari/537.36" etag="NpneEpyaSJHcSCsBqtS2" version="14.2.9" type="github">
  <diagram id="mXoa0eSgYvrqmYaV__g0" name="Page-1">
    <mxGraphModel dx="786" dy="514" grid="1" gridSize="10" guides="1" tooltips="1" connect="1" arrows="1" fold="1" page="1" pageScale="1" pageWidth="827" pageHeight="1169" math="0" shadow="0">
      <root>
        <mxCell id="0" />
        <mxCell id="1" parent="0" />
        <mxCell id="XLO7Y9AQhhBaWEBVcjyQ-9" style="edgeStyle=orthogonalEdgeStyle;rounded=0;orthogonalLoop=1;jettySize=auto;html=1;exitX=0.5;exitY=1;exitDx=0;exitDy=0;entryX=0.5;entryY=0;entryDx=0;entryDy=0;" edge="1" parent="1" source="XLO7Y9AQhhBaWEBVcjyQ-1" target="XLO7Y9AQhhBaWEBVcjyQ-7">
          <mxGeometry relative="1" as="geometry" />
        </mxCell>
        <mxCell id="XLO7Y9AQhhBaWEBVcjyQ-1" value="&lt;div&gt;&lt;font style=&quot;font-size: 14px&quot;&gt;在river_fdc_bill_rule表中新增一条记录：&lt;/font&gt;&lt;/div&gt;&lt;div&gt;&lt;ul&gt;&lt;li&gt;&lt;font style=&quot;font-size: 14px&quot;&gt;ruleId：GMS生成的临时ID。&lt;/font&gt;&lt;/li&gt;&lt;li&gt;&lt;font style=&quot;font-size: 14px&quot;&gt;status：待审核。&lt;/font&gt;&lt;/li&gt;&lt;li&gt;&lt;font style=&quot;font-size: 14px&quot;&gt;sync_status：准备。&lt;/font&gt;&lt;/li&gt;&lt;li&gt;&lt;font style=&quot;font-size: 14px&quot;&gt;version：1。&lt;/font&gt;&lt;/li&gt;&lt;/ul&gt;&lt;/div&gt;" style="rounded=0;whiteSpace=wrap;html=1;align=left;fillColor=#fff2cc;strokeColor=#d6b656;" vertex="1" parent="1">
          <mxGeometry x="130" y="130" width="260" height="110" as="geometry" />
        </mxCell>
        <mxCell id="XLO7Y9AQhhBaWEBVcjyQ-30" style="edgeStyle=orthogonalEdgeStyle;rounded=0;orthogonalLoop=1;jettySize=auto;html=1;entryX=0.5;entryY=0;entryDx=0;entryDy=0;fontSize=14;" edge="1" parent="1" source="XLO7Y9AQhhBaWEBVcjyQ-3" target="XLO7Y9AQhhBaWEBVcjyQ-1">
          <mxGeometry relative="1" as="geometry" />
        </mxCell>
        <mxCell id="XLO7Y9AQhhBaWEBVcjyQ-3" value="运营" style="shape=umlActor;verticalLabelPosition=bottom;verticalAlign=top;html=1;outlineConnect=0;" vertex="1" parent="1">
          <mxGeometry x="245" width="30" height="60" as="geometry" />
        </mxCell>
        <mxCell id="XLO7Y9AQhhBaWEBVcjyQ-13" style="edgeStyle=orthogonalEdgeStyle;rounded=0;orthogonalLoop=1;jettySize=auto;html=1;exitX=0.5;exitY=1;exitDx=0;exitDy=0;fontSize=14;" edge="1" parent="1" source="XLO7Y9AQhhBaWEBVcjyQ-7" target="XLO7Y9AQhhBaWEBVcjyQ-12">
          <mxGeometry relative="1" as="geometry" />
        </mxCell>
        <mxCell id="XLO7Y9AQhhBaWEBVcjyQ-32" style="edgeStyle=orthogonalEdgeStyle;rounded=0;orthogonalLoop=1;jettySize=auto;html=1;exitX=1;exitY=0.5;exitDx=0;exitDy=0;entryX=0.5;entryY=1;entryDx=0;entryDy=0;fontSize=14;" edge="1" parent="1" source="XLO7Y9AQhhBaWEBVcjyQ-7" target="XLO7Y9AQhhBaWEBVcjyQ-22">
          <mxGeometry relative="1" as="geometry" />
        </mxCell>
        <mxCell id="XLO7Y9AQhhBaWEBVcjyQ-7" value="更新river_fdc_bill_rule表中记录：&lt;br style=&quot;font-size: 14px&quot;&gt;&lt;ul style=&quot;font-size: 14px&quot;&gt;&lt;li style=&quot;font-size: 14px&quot;&gt;status：审核中。&lt;/li&gt;&lt;li style=&quot;font-size: 14px&quot;&gt;sync_status：准备。&lt;/li&gt;&lt;/ul&gt;" style="rounded=0;align=left;whiteSpace=wrap;html=1;fontSize=14;fillColor=#ffe6cc;strokeColor=#d79b00;" vertex="1" parent="1">
          <mxGeometry x="125" y="350" width="270" height="90" as="geometry" />
        </mxCell>
        <mxCell id="XLO7Y9AQhhBaWEBVcjyQ-10" value="&lt;font style=&quot;font-size: 14px&quot;&gt;提交审核&lt;/font&gt;" style="text;html=1;align=center;verticalAlign=middle;resizable=0;points=[];autosize=1;" vertex="1" parent="1">
          <mxGeometry x="190" y="280" width="70" height="20" as="geometry" />
        </mxCell>
        <mxCell id="XLO7Y9AQhhBaWEBVcjyQ-11" value="新建" style="text;html=1;align=center;verticalAlign=middle;resizable=0;points=[];autosize=1;fontSize=14;" vertex="1" parent="1">
          <mxGeometry x="260" y="90" width="40" height="20" as="geometry" />
        </mxCell>
        <mxCell id="XLO7Y9AQhhBaWEBVcjyQ-12" value="更新river_fdc_bill_rule表中记录：&lt;br style=&quot;font-size: 14px&quot;&gt;&lt;ul style=&quot;font-size: 14px&quot;&gt;&lt;li style=&quot;font-size: 14px&quot;&gt;status：审核通过。&lt;/li&gt;&lt;li style=&quot;font-size: 14px&quot;&gt;sync_status：同步中。&lt;/li&gt;&lt;/ul&gt;" style="rounded=0;align=left;whiteSpace=wrap;html=1;fontSize=14;fillColor=#d5e8d4;strokeColor=#82b366;" vertex="1" parent="1">
          <mxGeometry x="125" y="510" width="270" height="90" as="geometry" />
        </mxCell>
        <mxCell id="XLO7Y9AQhhBaWEBVcjyQ-33" style="edgeStyle=orthogonalEdgeStyle;rounded=0;orthogonalLoop=1;jettySize=auto;html=1;exitX=0.25;exitY=1;exitDx=0;exitDy=0;entryX=0.75;entryY=0;entryDx=0;entryDy=0;fontSize=14;" edge="1" parent="1" source="XLO7Y9AQhhBaWEBVcjyQ-22" target="XLO7Y9AQhhBaWEBVcjyQ-7">
          <mxGeometry relative="1" as="geometry">
            <Array as="points">
              <mxPoint x="515" y="310" />
              <mxPoint x="328" y="310" />
            </Array>
          </mxGeometry>
        </mxCell>
        <mxCell id="XLO7Y9AQhhBaWEBVcjyQ-34" style="edgeStyle=orthogonalEdgeStyle;rounded=0;orthogonalLoop=1;jettySize=auto;html=1;exitX=0.75;exitY=1;exitDx=0;exitDy=0;entryX=0.75;entryY=0;entryDx=0;entryDy=0;fontSize=14;" edge="1" parent="1" source="XLO7Y9AQhhBaWEBVcjyQ-22" target="XLO7Y9AQhhBaWEBVcjyQ-27">
          <mxGeometry relative="1" as="geometry" />
        </mxCell>
        <mxCell id="XLO7Y9AQhhBaWEBVcjyQ-22" value="&lt;div&gt;&lt;font style=&quot;font-size: 14px&quot;&gt;更新river_fdc_bill_rule表中记录：&lt;/font&gt;&lt;/div&gt;&lt;div&gt;&lt;ul&gt;&lt;li&gt;&lt;font style=&quot;font-size: 14px&quot;&gt;status：待审核。&lt;/font&gt;&lt;/li&gt;&lt;li&gt;&lt;font style=&quot;font-size: 14px&quot;&gt;sync_status：准备。&lt;/font&gt;&lt;/li&gt;&lt;/ul&gt;&lt;/div&gt;" style="rounded=0;whiteSpace=wrap;html=1;align=left;fillColor=#fff2cc;strokeColor=#d6b656;" vertex="1" parent="1">
          <mxGeometry x="450" y="130" width="260" height="75" as="geometry" />
        </mxCell>
        <mxCell id="XLO7Y9AQhhBaWEBVcjyQ-24" value="撤回" style="text;html=1;align=center;verticalAlign=middle;resizable=0;points=[];autosize=1;fontSize=14;" vertex="1" parent="1">
          <mxGeometry x="414" y="370" width="40" height="20" as="geometry" />
        </mxCell>
        <mxCell id="XLO7Y9AQhhBaWEBVcjyQ-26" value="&lt;font style=&quot;font-size: 14px&quot;&gt;提交审核&lt;/font&gt;" style="text;html=1;align=center;verticalAlign=middle;resizable=0;points=[];autosize=1;" vertex="1" parent="1">
          <mxGeometry x="440" y="280" width="70" height="20" as="geometry" />
        </mxCell>
        <mxCell id="XLO7Y9AQhhBaWEBVcjyQ-27" value="&lt;div&gt;&lt;font style=&quot;font-size: 14px&quot;&gt;更新river_fdc_bill_rule表中记录：&lt;/font&gt;&lt;/div&gt;&lt;div&gt;&lt;ul&gt;&lt;li&gt;&lt;span style=&quot;font-size: 14px&quot;&gt;is_deleted：1。&lt;/span&gt;&lt;/li&gt;&lt;/ul&gt;&lt;/div&gt;" style="rounded=0;whiteSpace=wrap;html=1;align=left;fillColor=#f5f5f5;strokeColor=#666666;fontColor=#333333;" vertex="1" parent="1">
          <mxGeometry x="473" y="510" width="230" height="75" as="geometry" />
        </mxCell>
        <mxCell id="XLO7Y9AQhhBaWEBVcjyQ-29" value="删除" style="text;html=1;align=center;verticalAlign=middle;resizable=0;points=[];autosize=1;fontSize=14;" vertex="1" parent="1">
          <mxGeometry x="640" y="280" width="40" height="20" as="geometry" />
        </mxCell>
      </root>
    </mxGraphModel>
  </diagram>
</mxfile>
